<svg width="768" height="288" viewBox="0 0 768 288" xmlns="http://www.w3.org/2000/svg" role="img" aria-label="Rolodex — Discover who's building with AI">
  <!-- Hard black offset shadow -->
  <rect x="6" y="6" width="760" height="280" rx="32" fill="#000"/>
  <!-- Card body with 2px black border -->
  <rect x="0" y="0" width="760" height="280" rx="32" fill="#FF4F00" stroke="#000" stroke-width="2"/>
  <!-- Header divider -->
  <line x1="0" y1="140" x2="760" y2="140" stroke="#000" stroke-width="2"/>
  <!-- Wordmark (logo-white.svg paths), scaled 0.5x and centered -->
  <g transform="translate(105 20) scale(0.5)">
    <path d="M243.952 5V199.007H128.98V5H243.952ZM186.466 43.8115C175.766 43.8118 167.06 52.5194 167.06 63.2188V140.791C167.06 151.49 175.766 160.195 186.466 160.195C197.166 160.195 205.873 151.49 205.873 140.791V63.2188C205.873 52.5192 197.166 43.8115 186.466 43.8115Z" fill="white"/>
    <path d="M380.98 199.007H495.952V5H380.98V199.007ZM457.873 140.791C457.873 151.49 449.166 160.195 438.466 160.195C427.766 160.195 419.06 151.49 419.06 140.791V63.2187C419.06 52.5191 427.766 43.8116 438.466 43.8116C449.166 43.8116 457.873 52.5191 457.873 63.2187V140.791Z" fill="white"/>
    <path d="M582.299 5H506.98V199.007H582.299C604.224 199.007 622.005 181.227 622.005 159.304V44.7028C622.005 22.7792 604.224 5 582.299 5ZM583.873 57.1338V146.873C583.873 154.216 577.894 160.195 570.551 160.195H545.06V43.8116H570.551C577.894 43.8116 583.873 49.791 583.873 57.1338Z" fill="white"/>
    <path d="M369.952 160.195H293.06V5H254.98V199.007H369.952V160.195Z" fill="white"/>
    <path d="M87.068 121.384H114.29V5H0V199.06H38.0792V121.384H48.2021L78.7284 199.112H117.542L87.0155 121.384H87.068ZM56.8039 82.572C48.5167 82.572 40.8591 77.3795 38.3939 69.4598C34.1978 56.0853 44.0584 43.8116 56.8039 43.8116C65.0911 43.8116 72.749 49.004 75.2141 56.9238C79.4102 70.2982 69.5494 82.572 56.8039 82.572Z" fill="white"/>
    <path d="M881.239 5H842.426L831.359 72.6072C830.415 78.3766 825.432 82.5719 819.61 82.5719C813.788 82.5719 808.805 78.3766 807.861 72.6072L796.794 5H757.98L775.761 102.03L757.98 199.06H796.794L807.861 131.348C808.805 125.579 813.788 121.384 819.61 121.384C825.432 121.384 830.415 125.631 831.359 131.348L842.426 199.06H881.239L863.459 102.03L881.239 5Z" fill="white"/>
    <path d="M747.165 5H632.98V198.955H747.165V131.138H709.139V140.161C709.139 149.916 702.215 158.57 692.564 159.934C679.661 161.717 668.752 150.859 670.535 137.904C671.899 128.254 680.553 121.332 690.309 121.332H747.165V5ZM689.732 82.572C679.032 82.572 670.325 73.8644 670.325 63.1649C670.325 52.4653 679.032 43.7591 689.732 43.7591C700.432 43.7591 709.139 52.4653 709.139 63.1649C709.139 73.8644 700.432 82.572 689.732 82.572Z" fill="white"/>
    <path fill-rule="evenodd" clip-rule="evenodd" d="M1097.98 100C1097.98 44.7715 1051.87 0 994.98 0C938.095 0 891.98 44.7715 891.98 100C891.98 155.228 938.095 200 994.98 200C1051.87 200 1097.98 155.228 1097.98 100ZM906.751 118.995C903.04 115.613 900.289 111.985 898.656 108.182C900.558 109.303 902.841 110.383 905.468 111.413C911.211 113.665 918.6 115.679 927.27 117.373C945.374 120.91 969.059 123.054 994.98 123.054C1020.9 123.054 1044.59 120.91 1062.69 117.373C1071.36 115.679 1078.75 113.665 1084.49 111.413C1087.12 110.383 1089.4 109.303 1091.31 108.182C1089.67 111.985 1086.92 115.613 1083.21 118.995C1082.16 119.95 1081.04 120.886 1079.84 121.8L1079.61 121.972L1079.49 122.066C1078.69 122.67 1077.85 123.264 1076.98 123.849C1076.07 124.465 1075.12 125.07 1074.14 125.663C1072.09 126.906 1069.89 128.098 1067.56 129.236C1067.3 129.361 1067.05 129.485 1066.79 129.608C1048.88 138.14 1023.34 143.477 994.98 143.477C966.623 143.477 941.077 138.14 923.174 129.608C922.915 129.485 922.657 129.361 922.402 129.236C920.069 128.098 917.871 126.906 915.818 125.663C914.838 125.07 913.891 124.465 912.978 123.849C912.111 123.264 911.276 122.67 910.472 122.066C910.354 121.978 910.237 121.889 910.121 121.8C908.923 120.886 907.799 119.95 906.751 118.995ZM1084.49 88.587C1078.75 86.3354 1071.36 84.3215 1062.69 82.6274C1044.59 79.0895 1020.9 76.9463 994.98 76.9463C969.059 76.9463 945.374 79.0895 927.27 82.6274C918.6 84.3215 911.211 86.3354 905.468 88.587C902.841 89.6169 900.558 90.6966 898.656 91.8182C900.289 88.015 903.04 84.3874 906.751 81.0052C907.799 80.0501 908.923 79.1145 910.121 78.2C910.237 78.1112 910.354 78.0225 910.472 77.934C911.276 77.3302 912.111 76.7357 912.978 76.151C913.891 75.5353 914.838 74.9305 915.818 74.3371C917.871 73.0943 920.069 71.9017 922.402 70.7641C922.657 70.6394 922.915 70.5154 923.174 70.392C941.077 61.8599 966.623 56.523 994.98 56.523C1023.34 56.523 1048.88 61.8599 1066.79 70.392C1066.94 70.4646 1067.09 70.5374 1067.24 70.6105L1067.56 70.7641C1069.89 71.9017 1072.09 73.0943 1074.14 74.3371C1075.12 74.9305 1076.07 75.5353 1076.98 76.151C1077.85 76.7357 1078.69 77.3302 1079.49 77.934C1079.61 78.0225 1079.72 78.1112 1079.84 78.2C1081.04 79.1145 1082.16 80.05 1083.21 81.0052C1086.92 84.3874 1089.67 88.015 1091.31 91.8182C1089.4 90.6966 1087.12 89.6169 1084.49 88.587ZM1074.31 59.8297C1066.91 54.3773 1058.04 49.6999 1048.07 46.026C1032.57 40.3138 1014.4 37.0279 994.98 37.0279C975.56 37.0279 957.395 40.3138 941.892 46.026C931.92 49.6999 923.05 54.3773 915.655 59.8297C914.831 60.4372 914.026 61.0543 913.239 61.6807C909.317 64.8033 905.862 68.1571 902.94 71.7028C903.894 69.5415 904.955 67.4231 906.116 65.352C910.998 56.6419 917.665 48.7678 925.723 42.0573C928.981 39.3441 932.467 36.821 936.154 34.5098C952.541 24.2381 972.909 18.1517 994.98 18.1517C1017.05 18.1517 1037.42 24.2381 1053.81 34.5098C1057.49 36.821 1060.98 39.344 1064.24 42.0573C1072.3 48.7678 1078.96 56.6419 1083.85 65.352C1085.01 67.4231 1086.07 69.5415 1087.02 71.7028C1084.1 68.1571 1080.64 64.8033 1076.72 61.6807C1075.94 61.0543 1075.13 60.4372 1074.31 59.8297ZM1052.14 93.7675C1063.6 95.57 1072.45 97.7872 1078.51 100C1072.45 102.213 1063.6 104.43 1052.14 106.232C1036.16 108.745 1016.43 110.254 994.98 110.254C973.528 110.254 953.806 108.745 937.824 106.232C926.36 104.43 917.516 102.213 911.453 100C917.516 97.7872 926.36 95.57 937.824 93.7675C953.806 91.2549 973.528 89.7463 994.98 89.7463C1016.43 89.7463 1036.16 91.2549 1052.14 93.7675ZM915.655 140.17C923.05 145.623 931.92 150.3 941.892 153.974C957.395 159.686 975.56 162.972 994.98 162.972C1014.4 162.972 1032.57 159.686 1048.07 153.974C1058.04 150.3 1066.91 145.623 1074.31 140.17C1075.13 139.563 1075.94 138.946 1076.72 138.319C1080.64 135.197 1084.1 131.843 1087.02 128.297C1086.07 130.458 1085.01 132.577 1083.85 134.648C1078.96 143.358 1072.3 151.232 1064.24 157.943C1060.98 160.656 1057.49 163.179 1053.81 165.49C1037.42 175.762 1017.05 181.848 994.98 181.848C972.909 181.848 952.541 175.762 936.154 165.49C932.467 163.179 928.981 160.656 925.723 157.943C917.665 151.232 910.998 143.358 906.116 134.648C904.955 132.577 903.894 130.458 902.94 128.297C905.862 131.843 909.317 135.197 913.239 138.319C914.026 138.946 914.831 139.563 915.655 140.17Z" fill="white"/>
  </g>
  <!-- Tagline -->
  <text x="380" y="218" text-anchor="middle" font-family="system-ui, -apple-system, BlinkMacSystemFont, Segoe UI, Helvetica, Arial, sans-serif" font-size="22" font-weight="600" fill="#000">Discover who's building with AI</text>
</svg>
